<svg xmlns="http://www.w3.org/2000/svg" viewBox="0 0 512 512" role="img" aria-labelledby="title desc">
  <title id="title">WindDrawer Icon</title>
  <desc id="desc">Rounded square gradient background with flowing wind strokes and a pen nib.</desc>
  <defs>
    <linearGradient id="bg" x1="56" y1="56" x2="456" y2="456" gradientUnits="userSpaceOnUse">
      <stop offset="0" stop-color="#0ea5e9"/>
      <stop offset="0.52" stop-color="#2563eb"/>
      <stop offset="1" stop-color="#14b8a6"/>
    </linearGradient>
    <linearGradient id="nib" x1="158" y1="158" x2="354" y2="354" gradientUnits="userSpaceOnUse">
      <stop offset="0" stop-color="#f8fafc"/>
      <stop offset="1" stop-color="#dbeafe"/>
    </linearGradient>
    <filter id="shadow" x="-20%" y="-20%" width="140%" height="140%">
      <feDropShadow dx="0" dy="10" stdDeviation="10" flood-color="#0f172a" flood-opacity=".28"/>
    </filter>
  </defs>

  <rect x="32" y="32" width="448" height="448" rx="112" fill="url(#bg)"/>
  <rect x="32" y="32" width="448" height="448" rx="112" fill="none" stroke="#e2e8f0" stroke-opacity=".26" stroke-width="2"/>

  <path d="M95 278C145 232 207 217 277 228C336 238 381 222 418 189" fill="none" stroke="#f8fafc" stroke-opacity=".62" stroke-width="18" stroke-linecap="round"/>
  <path d="M108 330C158 286 220 274 286 283C339 290 386 278 418 246" fill="none" stroke="#ffffff" stroke-opacity=".75" stroke-width="18" stroke-linecap="round"/>
  <path d="M100 380C160 334 231 323 299 334C352 343 394 332 426 300" fill="none" stroke="#ffffff" stroke-opacity=".88" stroke-width="18" stroke-linecap="round"/>

  <g filter="url(#shadow)">
    <path d="M256 114L390 248L256 382L122 248Z" fill="url(#nib)"/>
    <path d="M256 154L350 248L256 342L162 248Z" fill="#0f172a" fill-opacity=".17"/>
    <circle cx="256" cy="248" r="29" fill="#f8fafc"/>
    <path d="M256 210L283 248L256 286L229 248Z" fill="#1d4ed8"/>
  </g>
</svg>
